# xmcd
#
# Track frame offsets:
#	150
#	13509
#	28044
#	43327
#	58258
#	77164
#	89140
#	107942
#	127246
#	141577
#	158289
#	176585
#	202135
#
# Disc length: 2908 seconds
#
# Revision: 1
# Processed by: cddbd v1.5.2PL0 Copyright (c) Steve Scherf et al.
# Submitted via: audiograbber 1.83.01
#
DISCID=c30b5a0d
DTITLE=Johnny Madsen - Værelse 128
DYEAR=2008
DGENRE=Blues
TTITLE0=Heroes
TTITLE1=Vilde Villy
TTITLE2=Vest for vest
TTITLE3=Ræk dem en hånd John
TTITLE4=Bag bakken
TTITLE5=Han sad på bænken
TTITLE6=Moulin Rouge
TTITLE7=Vejen til Warzawa
TTITLE8=Ejgilds hemmelige liv
TTITLE9=Dans amigo
TTITLE10=Lindberg
TTITLE11=Motorvej
TTITLE12=Chinatown, yellow moon og den sorte fugl
EXTD=
EXTT0=
EXTT1=
EXTT2=
EXTT3=
EXTT4=
EXTT5=
EXTT6=
EXTT7=
EXTT8=
EXTT9=
EXTT10=
EXTT11=
EXTT12=
PLAYORDER=
